<svg width="40" height="39" viewBox="0 0 40 39" fill="none" xmlns="http://www.w3.org/2000/svg">
<circle cx="20.1775" cy="19.5" r="19.5" fill="#FFDA00"/>
<g clip-path="url(#clip0_7_1087)">
<path d="M29.117 24.8149L24.8631 21.8512C24.2637 21.437 23.387 21.5872 22.971 22.1699L21.8662 23.7587C21.7991 23.8543 21.7454 23.9636 21.7096 24.0774C21.5665 24.173 21.3115 24.2868 20.9358 24.2868C20.3185 24.2868 19.2629 23.9681 17.7599 22.4385C15.264 19.8983 15.2461 18.7829 15.5816 17.9271C15.6621 17.8907 15.7381 17.8451 15.8052 17.7905L17.3305 16.616C17.912 16.1698 18.0283 15.3003 17.5855 14.6767L14.5349 10.4475C13.9265 9.60073 13.1795 9.50513 12.3968 10.188C11.9226 10.6068 11.1354 11.6038 10.8133 12.2001C10.6299 12.5279 10.5494 12.8694 10.5807 13.2108C9.14485 18.9286 13.3942 23.6494 14.7362 24.9696C18.404 28.5797 21.808 29.3172 24.0222 29.3172C25.2791 29.3172 26.1871 29.0896 26.5897 28.9166C26.9028 28.9257 27.2204 28.8437 27.5246 28.6571C28.1061 28.3065 29.0588 27.478 29.448 26.9818C29.77 26.5766 29.8998 26.1988 29.8416 25.8255C29.7879 25.4476 29.5509 25.1153 29.117 24.8149ZM28.7502 26.4173C28.4281 26.827 27.5514 27.5964 27.0639 27.8877C26.8849 27.997 26.715 28.0425 26.5539 28.0243C26.4645 28.0152 26.3795 28.0334 26.299 28.0744C26.1111 28.1745 25.2925 28.4522 24.0177 28.4522C21.9691 28.4522 18.8066 27.7375 15.3534 24.3369C14.101 23.0986 10.1021 18.6463 11.4664 13.361C11.4798 13.3018 11.4843 13.2381 11.4753 13.1789C11.4529 13.0059 11.4887 12.8329 11.5916 12.6463C11.8645 12.1455 12.5891 11.2214 12.9782 10.88C13.1437 10.7343 13.2958 10.6523 13.3987 10.6523C13.5419 10.6523 13.7074 10.839 13.8192 10.9938L16.8653 15.2229C17.0219 15.446 16.9906 15.7465 16.7938 15.8967L15.264 17.0758C15.2371 17.0985 15.2013 17.1122 15.1477 17.1258C15.0135 17.1577 14.9017 17.2533 14.848 17.3762C14.1994 18.8102 14.3559 20.267 17.1337 23.0895C18.5114 24.4916 19.7952 25.2064 20.9403 25.2064C21.7096 25.2064 22.1882 24.8831 22.4074 24.6919C22.4879 24.6191 22.5416 24.5235 22.555 24.4142C22.564 24.3642 22.5774 24.3232 22.5998 24.2913L23.7001 22.7025C23.8388 22.5068 24.1474 22.4613 24.3577 22.6069L28.6115 25.566C28.8218 25.7117 28.9425 25.8482 28.9559 25.9621C28.9738 26.0668 28.9023 26.2306 28.7502 26.4173Z" fill="#424242" stroke="#100F0F" stroke-width="0.5"/>
</g>
<defs>
<clipPath id="clip0_7_1087">
<rect width="20.2405" height="21.2278" fill="white" transform="translate(10.0574 8.886)"/>
</clipPath>
</defs>
</svg>
